<svg width="22" height="22" viewBox="0 0 22 22" fill="none" xmlns="http://www.w3.org/2000/svg">
<path d="M20.7608 22C17.9011 22 15.2107 21.4592 12.6898 20.3775C10.1688 19.2958 7.96898 17.8152 6.09035 15.9357C4.21172 14.0569 2.72685 11.8569 1.63575 9.3357C0.544645 6.8145 -0.000539176 4.11547 0.000194091 1.2386C-0.0181376 0.9086 0.0918525 0.619667 0.330165 0.3718C0.568476 0.123933 0.861784 0 1.21009 0H5.4997C5.82967 0 6.11381 0.123933 6.35213 0.3718C6.59044 0.619667 6.70959 0.9174 6.70959 1.265C6.70959 2.07167 6.76459 2.8325 6.87458 3.5475C6.98457 4.2625 7.15872 4.94083 7.39703 5.5825C7.48869 5.78417 7.50702 5.99023 7.45203 6.2007C7.39703 6.41117 7.28704 6.60843 7.12206 6.7925L4.3723 9.5425C5.16057 11.1558 6.2788 12.6867 7.727 14.135C9.17521 15.5833 10.7334 16.7383 12.4016 17.6L15.1513 14.85C15.3163 14.685 15.5088 14.575 15.7288 14.52C15.9488 14.465 16.1687 14.4833 16.3887 14.575C17.067 14.795 17.7684 14.9648 18.4928 15.0843C19.2173 15.2038 19.9641 15.2632 20.7333 15.2625C21.0816 15.2625 21.3797 15.3908 21.6276 15.6475C21.8754 15.9042 21.999 16.2158 21.9982 16.5825V20.79C21.9982 21.12 21.8791 21.4042 21.6408 21.6425C21.4024 21.8808 21.1091 22 20.7608 22ZM14.4364 18.7C15.2613 19.0117 16.1229 19.2592 17.0212 19.4425C17.9194 19.6258 18.8452 19.745 19.7984 19.8V17.435C19.2301 17.3983 18.6479 17.3342 18.0518 17.2425C17.4556 17.1508 16.8646 17.0133 16.2787 16.83L14.4364 18.7ZM19.7984 11C19.7984 8.54333 18.946 6.4625 17.2411 4.7575C15.5363 3.0525 13.4557 2.2 10.9992 2.2V0C12.5207 0 13.9506 0.288933 15.2888 0.8668C16.627 1.44467 17.7911 2.22823 18.781 3.2175C19.7709 4.2075 20.5548 5.37167 21.1326 6.71C21.7104 8.04833 21.999 9.47833 21.9982 11H19.7984ZM15.3988 11C15.3988 9.79 14.968 8.75417 14.1064 7.8925C13.2448 7.03083 12.2091 6.6 10.9992 6.6V4.4C12.8324 4.4 14.3906 5.04167 15.6738 6.325C16.957 7.60833 17.5986 9.16667 17.5986 11H15.3988ZM3.2999 7.5075L5.11474 5.665C4.96808 5.13333 4.84416 4.57417 4.74297 3.9875C4.64178 3.40083 4.57322 2.805 4.53729 2.2H2.22749C2.26416 3.08 2.37415 3.96 2.55747 4.84C2.74078 5.72 2.98826 6.60917 3.2999 7.5075Z" fill="black"/>
</svg>
